<?xml version="1.0" encoding="UTF-8"?> <svg xmlns="http://www.w3.org/2000/svg" width="1140" height="230" viewBox="0 0 1140 230" fill="none"><g filter="url(#filter0_b_2327_10582)"><path fill-rule="evenodd" clip-rule="evenodd" d="M779.053 230C766.915 230 757 219.638 757 207.5V207.5C757 186.42 757 175.88 751.78 168.402C749.827 165.604 747.396 163.173 744.598 161.22C737.12 156 726.58 156 705.5 156H434.5C413.42 156 402.88 156 395.402 161.22C392.604 163.173 390.173 165.604 388.22 168.402C383 175.88 383 186.42 383 207.5V207.5C383 219.638 373.085 230 360.947 230H38C20.0867 230 11.1299 230 5.56494 224.435C0 218.87 0 209.913 0 192V38C0 20.0866 0 11.1299 5.56494 5.56497C11.1299 0 20.0867 0 38 0H1102C1119.91 0 1128.87 0 1134.44 5.56497C1140 11.1299 1140 20.0866 1140 38V192C1140 209.913 1140 218.87 1134.44 224.435C1128.87 230 1119.91 230 1102 230H779.053Z" fill="#484D52" fill-opacity="0.17"></path></g><g opacity="0.4" filter="url(#filter1_b_2327_10582)"><mask id="path-2-inside-1_2327_10582" fill="white"><path fill-rule="evenodd" clip-rule="evenodd" d="M1125 166C1125 183.913 1125 192.87 1119.44 198.435C1113.87 204 1104.91 204 1087 204H831C813.087 204 804.13 204 798.565 198.435C793 192.87 793 183.913 793 166V166C793 139.49 771.51 118 745 118H392C365.49 118 344 139.49 344 166V166C344 183.913 344 192.87 338.435 198.435C332.87 204 323.913 204 306 204H53C35.0867 204 26.13 204 20.5649 198.435C15 192.87 15 183.913 15 166V65C15 47.0866 15 38.1299 20.5649 32.565C26.13 27 35.0867 27 53 27H306C311.908 27 316.841 27 321 27.1996C325.159 27 330.092 27 336 27H799C805.388 27 810.638 27 815 27.2524C819.362 27 824.612 27 831 27H1087C1104.91 27 1113.87 27 1119.44 32.565C1125 38.1299 1125 47.0866 1125 65V166Z"></path></mask><path fill-rule="evenodd" clip-rule="evenodd" d="M1125 166C1125 183.913 1125 192.87 1119.44 198.435C1113.87 204 1104.91 204 1087 204H831C813.087 204 804.13 204 798.565 198.435C793 192.87 793 183.913 793 166V166C793 139.49 771.51 118 745 118H392C365.49 118 344 139.49 344 166V166C344 183.913 344 192.87 338.435 198.435C332.87 204 323.913 204 306 204H53C35.0867 204 26.13 204 20.5649 198.435C15 192.87 15 183.913 15 166V65C15 47.0866 15 38.1299 20.5649 32.565C26.13 27 35.0867 27 53 27H306C311.908 27 316.841 27 321 27.1996C325.159 27 330.092 27 336 27H799C805.388 27 810.638 27 815 27.2524C819.362 27 824.612 27 831 27H1087C1104.91 27 1113.87 27 1119.44 32.565C1125 38.1299 1125 47.0866 1125 65V166Z" fill="white" fill-opacity="0.01"></path><path d="M338.435 198.435L339.142 199.142L339.142 199.142L338.435 198.435ZM20.5649 198.435L19.8578 199.142L19.8578 199.142L20.5649 198.435ZM20.5649 32.565L19.8578 31.8579L19.8578 31.8579L20.5649 32.565ZM321 27.1996L320.952 28.1985L321 28.2008L321.048 28.1985L321 27.1996ZM815 27.2524L814.942 28.2507L815 28.2541L815.058 28.2507L815 27.2524ZM1120.14 199.142C1123.14 196.143 1124.58 192.266 1125.3 186.981C1126 181.725 1126 174.928 1126 166H1124C1124 174.985 1124 181.623 1123.31 186.715C1122.63 191.778 1121.29 195.162 1118.73 197.728L1120.14 199.142ZM1087 205C1095.93 205 1102.73 205.002 1107.98 204.295C1113.27 203.585 1117.14 202.141 1120.14 199.142L1118.73 197.728C1116.16 200.294 1112.78 201.633 1107.71 202.313C1102.62 202.998 1095.98 203 1087 203V205ZM831 205H1087V203H831V205ZM797.858 199.142C800.857 202.141 804.734 203.585 810.019 204.295C815.275 205.002 822.072 205 831 205V203C822.015 203 815.377 202.998 810.285 202.313C805.222 201.633 801.838 200.294 799.272 197.728L797.858 199.142ZM792 166C792 174.928 791.998 181.725 792.705 186.981C793.415 192.266 794.859 196.143 797.858 199.142L799.272 197.728C796.706 195.162 795.367 191.778 794.687 186.715C794.002 181.623 794 174.985 794 166H792ZM392 119H745V117H392V119ZM343 166C343 174.985 342.998 181.623 342.313 186.715C341.633 191.778 340.294 195.162 337.728 197.728L339.142 199.142C342.141 196.143 343.585 192.266 344.295 186.981C345.002 181.725 345 174.928 345 166H343ZM337.728 197.728C335.162 200.294 331.778 201.633 326.715 202.313C321.623 202.998 314.985 203 306 203V205C314.928 205 321.725 205.002 326.981 204.295C332.266 203.585 336.143 202.141 339.142 199.142L337.728 197.728ZM306 203H53V205H306V203ZM53 203C44.0151 203 37.377 202.998 32.2851 202.313C27.222 201.633 23.8378 200.294 21.272 197.728L19.8578 199.142C22.8571 202.141 26.7338 203.585 32.0186 204.295C37.2747 205.002 44.0716 205 53 205V203ZM21.2721 197.728C18.7063 195.162 17.3674 191.778 16.6867 186.715C16.0021 181.623 16 174.985 16 166H14C14 174.928 13.9979 181.725 14.7045 186.981C15.4151 192.266 16.8586 196.143 19.8578 199.142L21.2721 197.728ZM16 166V65H14V166H16ZM16 65C16 56.015 16.0021 49.3769 16.6867 44.2851C17.3674 39.222 18.7063 35.8378 21.2721 33.2721L19.8578 31.8579C16.8586 34.8571 15.4151 38.7337 14.7045 44.0186C13.9979 49.2747 14 56.0716 14 65H16ZM21.272 33.2721C23.8378 30.7064 27.222 29.3674 32.2851 28.6867C37.377 28.0021 44.0151 28 53 28V26C44.0716 26 37.2747 25.9979 32.0186 26.7045C26.7338 27.4151 22.8571 28.8586 19.8578 31.8579L21.272 33.2721ZM53 28H306V26H53V28ZM306 28C311.916 28 316.822 28.0002 320.952 28.1985L321.048 26.2007C316.86 25.9998 311.9 26 306 26V28ZM336 26C330.1 26 325.14 25.9998 320.952 26.2007L321.048 28.1985C325.178 28.0002 330.084 28 336 28V26ZM799 26H336V28H799V26ZM815.058 26.2541C810.66 25.9996 805.378 26 799 26V28C805.398 28 810.615 28.0004 814.942 28.2507L815.058 26.2541ZM831 26C824.622 26 819.34 25.9996 814.942 26.2541L815.058 28.2507C819.385 28.0004 824.602 28 831 28V26ZM1087 26H831V28H1087V26ZM1120.14 31.8579C1117.14 28.8586 1113.27 27.4151 1107.98 26.7045C1102.73 25.9979 1095.93 26 1087 26V28C1095.98 28 1102.62 28.0021 1107.71 28.6867C1112.78 29.3674 1116.16 30.7064 1118.73 33.2721L1120.14 31.8579ZM1126 65C1126 56.0716 1126 49.2747 1125.3 44.0186C1124.58 38.7337 1123.14 34.8571 1120.14 31.8579L1118.73 33.2721C1121.29 35.8378 1122.63 39.222 1123.31 44.2851C1124 49.3769 1124 56.015 1124 65H1126ZM1126 166V65H1124V166H1126ZM392 117C364.938 117 343 138.938 343 166H345C345 140.043 366.043 119 392 119V117ZM794 166C794 138.938 772.062 117 745 117V119C770.957 119 792 140.043 792 166H794Z" fill="white" fill-opacity="0.3" mask="url(#path-2-inside-1_2327_10582)"></path></g><line opacity="0.1" x1="422.5" y1="28" x2="422.5" y2="117" stroke="white"></line><line opacity="0.1" x1="725.5" y1="28" x2="725.5" y2="117" stroke="white"></line><rect width="24" height="24" transform="translate(713 60)" fill="#191B1E"></rect><path d="M722.575 72L718 67.4L719.4 66L725.4 72L719.4 78L718 76.6L722.575 72ZM729.175 72L724.6 67.4L726 66L732 72L726 78L724.6 76.6L729.175 72Z" fill="white" fill-opacity="0.2"></path><rect width="24" height="24" transform="matrix(-1 0 0 1 435 60)" fill="#191B1E"></rect><path d="M425.425 72L430 67.4L428.6 66L422.6 72L428.6 78L430 76.6L425.425 72ZM418.825 72L423.4 67.4L422 66L416 72L422 78L423.4 76.6L418.825 72Z" fill="white" fill-opacity="0.2"></path><defs><filter id="filter0_b_2327_10582" x="-54" y="-54" width="1248" height="338" filterUnits="userSpaceOnUse" color-interpolation-filters="sRGB"><feFlood flood-opacity="0" result="BackgroundImageFix"></feFlood><feGaussianBlur in="BackgroundImageFix" stdDeviation="27"></feGaussianBlur><feComposite in2="SourceAlpha" operator="in" result="effect1_backgroundBlur_2327_10582"></feComposite><feBlend mode="normal" in="SourceGraphic" in2="effect1_backgroundBlur_2327_10582" result="shape"></feBlend></filter><filter id="filter1_b_2327_10582" x="-129" y="-117" width="1398" height="465" filterUnits="userSpaceOnUse" color-interpolation-filters="sRGB"><feFlood flood-opacity="0" result="BackgroundImageFix"></feFlood><feGaussianBlur in="BackgroundImageFix" stdDeviation="72"></feGaussianBlur><feComposite in2="SourceAlpha" operator="in" result="effect1_backgroundBlur_2327_10582"></feComposite><feBlend mode="normal" in="SourceGraphic" in2="effect1_backgroundBlur_2327_10582" result="shape"></feBlend></filter></defs></svg> 