<?xml version="1.0" encoding="UTF-8"?> <svg xmlns="http://www.w3.org/2000/svg" width="118" height="118" viewBox="0 0 118 118" fill="none"><g clip-path="url(#clip0_2713_27236)"><path d="M59 0C26.4654 0 0 26.468 0 59C0 91.5321 26.4654 118 59 118C91.5346 118 118 91.5321 118 59C118 26.468 91.5346 0 59 0ZM82.455 61.0671L48.0384 83.1921C47.6421 83.448 47.1802 83.5839 46.7084 83.5834C46.3051 83.5834 45.8969 83.4825 45.5321 83.2833C45.144 83.0722 44.82 82.7603 44.5943 82.3804C44.3687 82.0006 44.2497 81.5668 44.25 81.125V36.875C44.25 35.9748 44.7397 35.1488 45.5321 34.7167C46.3099 34.2894 47.2846 34.3156 48.0384 34.8079L82.455 56.9329C83.1561 57.3842 83.5834 58.1646 83.5834 59C83.5834 59.8354 83.1561 60.6156 82.455 61.0671Z" fill="url(#paint0_linear_2713_27236)"></path></g><defs><linearGradient id="paint0_linear_2713_27236" x1="-2.6375e-07" y1="109.15" x2="118" y2="20.65" gradientUnits="userSpaceOnUse"><stop stop-color="#25DCFF"></stop><stop offset="1" stop-color="#2591FF"></stop></linearGradient><clipPath id="clip0_2713_27236"><rect width="118" height="118" fill="white"></rect></clipPath></defs></svg> 